<svg version="1.1" id="Layer_1" xmlns="http://www.w3.org/2000/svg" xmlns:xlink="http://www.w3.org/1999/xlink" x="0px" y="0px"
	 width="100%" viewBox="0 0 215 225" enable-background="new 0 0 215 225" xml:space="preserve">
<path fill="none" opacity="1.000000" stroke="none" 
	d="
M117.000000,226.000000 
	C78.000000,226.000000 39.500004,226.000000 1.000005,226.000000 
	C1.000003,151.000000 1.000003,76.000015 1.000002,1.000015 
	C72.666656,1.000010 144.333313,1.000010 215.999969,1.000005 
	C215.999985,75.999985 215.999985,150.999969 216.000000,225.999969 
	C183.166672,226.000000 150.333328,226.000000 117.000000,226.000000 
M171.246979,80.120056 
	C169.828934,80.429550 168.410904,80.739044 166.230072,80.979500 
	C165.490875,81.148849 164.751678,81.318192 163.480331,81.410530 
	C162.986877,81.608047 162.493408,81.805565 161.300751,81.949303 
	C160.200012,82.288490 159.099274,82.627678 157.203903,82.944756 
	C153.406631,84.103661 149.609360,85.262566 145.063889,86.596352 
	C142.360001,87.688484 139.656113,88.780624 136.233963,89.941315 
	C134.129623,90.950706 132.025284,91.960091 129.258057,93.049225 
	C127.547264,93.985291 125.836472,94.921356 123.973404,94.949677 
	C123.809547,88.910690 123.645691,82.871696 123.424271,75.999008 
	C122.204269,71.270554 120.984268,66.542099 119.701714,60.972645 
	C118.173958,55.035671 116.637222,49.100990 115.120575,43.161182 
	C112.907326,34.493206 110.821732,25.790569 108.461617,17.162916 
	C107.014435,11.872613 102.312889,9.143062 97.470901,10.361039 
	C92.660149,11.571159 90.626694,15.537134 91.915703,21.281218 
	C92.494446,23.860258 93.148933,26.422300 93.056427,29.011139 
	C90.601097,30.709522 88.145767,32.407902 85.140747,33.596172 
	C84.441925,30.689579 83.743103,27.782986 83.044281,24.876390 
	C78.377037,37.159409 78.080208,49.520241 79.455704,62.822483 
	C80.074768,70.880531 80.693840,78.938583 81.053627,87.701706 
	C79.306961,90.984291 77.560295,94.266884 75.159065,97.834557 
	C66.766212,102.540619 58.373360,107.246681 49.263218,112.042130 
	C45.143173,114.280594 41.023125,116.519051 36.190044,118.887573 
	C29.116140,122.585861 22.042234,126.284149 14.280091,130.106339 
	C9.493653,134.719879 8.740921,139.132553 12.048284,143.189728 
	C14.964385,146.766937 19.418367,146.941452 24.648983,143.642761 
	C25.479630,143.118896 26.217396,142.447769 27.713911,141.906235 
	C31.242453,139.975250 34.770996,138.044250 38.987854,136.011780 
	C44.325359,132.997803 49.662865,129.983810 55.719944,127.160484 
	C64.451401,122.692329 73.182861,118.224174 82.041313,114.536102 
	C84.183937,118.497963 87.116707,117.631737 89.866714,115.526306 
	C92.002815,113.890862 93.602699,113.364120 94.951057,116.521248 
	C94.951057,116.521248 94.833740,116.917046 94.234016,117.062866 
	C93.100990,117.924828 91.967964,118.786789 90.146576,119.840607 
	C82.714638,123.869606 75.282692,127.898605 67.143494,132.003189 
	C62.100410,134.681091 57.057327,137.358978 51.309605,140.100983 
	C43.795589,144.112167 36.281578,148.123352 27.590864,152.762695 
	C38.582920,153.915039 47.841206,152.408371 57.777451,149.852066 
	C62.846760,148.216446 67.916069,146.580826 73.745285,144.955338 
	C79.925049,142.346588 86.104820,139.737839 92.704620,137.110352 
	C92.704620,137.110352 93.033493,136.848358 93.822136,137.211304 
	C93.929802,139.806229 94.037468,142.401138 93.969269,145.869919 
	C96.987297,158.910583 100.005325,171.951263 102.999283,185.788300 
	C105.371445,195.186386 107.618362,204.619186 110.207741,213.957047 
	C110.821159,216.169144 112.584007,218.062515 114.260628,220.723755 
	C119.923271,224.664001 127.278084,219.972397 127.114937,214.661865 
	C127.046280,212.426880 126.260567,210.213898 125.845886,207.221313 
	C124.596832,201.815292 123.347778,196.409271 122.828506,191.016510 
	C124.063133,191.181503 125.297760,191.346481 126.574974,191.517166 
	C126.533760,185.721146 125.755493,185.023987 120.398514,185.470703 
	C119.013412,180.611542 117.628311,175.752396 116.224808,170.085785 
	C114.258904,161.397873 112.292999,152.709946 110.534607,143.520935 
	C110.665634,143.005234 110.796661,142.489532 111.687660,142.000092 
	C113.501068,143.499863 115.314484,144.999619 117.396439,146.721481 
	C117.612656,145.745132 117.806023,144.871964 118.434982,143.833603 
	C119.116722,143.890778 119.798470,143.947952 120.547478,144.902283 
	C122.073021,151.932129 123.598564,158.961975 125.096802,166.766464 
	C126.427299,171.509323 127.757790,176.252182 129.052795,181.784744 
	C131.146576,190.124985 133.240356,198.465225 135.334137,206.805466 
	C135.812714,206.847794 136.291290,206.890137 136.769852,206.932480 
	C137.526642,201.960815 138.283432,196.989166 139.323715,191.551529 
	C139.205261,190.705307 139.086792,189.859085 139.011566,188.103271 
	C138.963974,185.067886 138.916397,182.032486 139.005234,178.243759 
	C138.553650,170.821915 138.102081,163.400085 137.764999,155.145309 
	C137.691666,151.482193 137.618332,147.819077 137.825958,143.522461 
	C138.796890,138.139893 141.546127,134.100723 146.562225,131.664230 
	C148.773300,130.590225 150.873093,129.287094 153.627274,128.047348 
	C154.111908,127.715919 154.596527,127.384499 155.014023,127.005371 
	C155.014023,127.005371 155.045990,127.081261 155.731445,126.997719 
	C157.486435,125.962479 159.241425,124.927238 161.686691,123.979004 
	C163.464981,122.995522 165.243271,122.012047 167.709259,120.947968 
	C169.139526,120.199478 170.569794,119.450996 172.668137,118.548691 
	C177.126801,116.077065 181.585464,113.605438 186.782425,111.055115 
	C189.521301,109.662659 192.260193,108.270203 195.653473,106.961479 
	C196.778824,106.320786 197.904175,105.680092 199.732803,104.940742 
	C204.062744,102.939308 208.444473,100.980865 208.070084,94.238258 
	C204.910995,86.162132 202.013977,84.688744 195.449249,87.791092 
	C194.409988,88.282234 193.325867,88.678490 191.678589,88.720406 
	C190.456268,86.231598 189.233963,83.742798 188.408859,80.739952 
	C182.930328,80.561539 177.451782,80.383118 171.246979,80.120056 
z"/>
<path fill="#2385AA" opacity="1.000000" stroke="none" 
	d="
M93.769043,28.992058 
	C93.148933,26.422300 92.494446,23.860258 91.915703,21.281218 
	C90.626694,15.537134 92.660149,11.571159 97.470901,10.361039 
	C102.312889,9.143062 107.014435,11.872613 108.461617,17.162916 
	C110.821732,25.790569 112.907326,34.493206 115.120575,43.161182 
	C116.637222,49.100990 118.173958,55.035671 119.353455,61.505989 
	C117.273338,64.165474 115.535492,66.286781 113.811058,68.418945 
	C111.477661,71.304047 109.154579,74.197487 106.606949,76.786163 
	C102.180908,60.653999 97.974968,44.823029 93.769043,28.992058 
z"/>
<path fill="#F2F8F1" opacity="1.000000" stroke="none" 
	d="
M120.480209,144.005127 
	C119.798470,143.947952 119.116722,143.890778 118.217163,143.499786 
	C117.659302,140.887573 117.319244,138.609192 116.972549,136.286301 
	C114.450363,137.021423 112.778091,137.508820 111.061646,137.610382 
	C111.437744,135.468567 111.858017,133.712616 112.461327,131.765228 
	C112.717865,131.231476 112.791374,130.889191 112.865341,130.196472 
	C114.202576,126.893433 115.539352,123.940819 117.066750,120.704788 
	C123.165070,116.188019 129.072769,111.954666 135.305237,107.646072 
	C137.764893,106.406441 139.899734,105.242043 142.386322,104.034271 
	C145.007904,102.761566 147.277756,101.532249 149.858459,100.250496 
	C151.455856,99.497398 152.742447,98.796745 154.388184,98.047867 
	C159.549133,95.478905 164.350922,92.958153 169.489563,90.345062 
	C171.602066,89.301796 173.377716,88.350891 175.508911,87.303520 
	C179.913528,85.222710 183.962585,83.238350 188.011642,81.253990 
	C189.233963,83.742798 190.456268,86.231598 191.791962,89.161362 
	C191.267090,90.059227 190.628830,90.516136 189.626907,90.983658 
	C186.323486,92.619759 183.383728,94.245247 180.105286,95.896255 
	C177.364990,97.214455 174.963364,98.507133 172.229126,99.859695 
	C168.968567,101.480942 166.040634,103.042305 162.817749,104.675606 
	C160.662033,105.776825 158.801315,106.806107 156.627548,107.883820 
	C155.100113,108.617111 153.885712,109.301971 152.290421,110.052437 
	C147.607681,112.227013 143.298203,114.320610 139.005692,116.448441 
	C132.006348,119.918083 126.254463,124.690002 122.592773,132.167175 
	C121.663162,136.243820 121.071686,140.124481 120.480209,144.005127 
z"/>
<path fill="#1E83AA" opacity="1.000000" stroke="none" 
	d="
M113.818115,220.102478 
	C112.584007,218.062515 110.821159,216.169144 110.207741,213.957047 
	C107.618362,204.619186 105.371445,195.186386 103.320251,185.251984 
	C105.517929,182.980118 107.540649,181.375107 109.236671,179.478012 
	C111.696007,176.727112 113.919266,173.765167 116.243210,170.893234 
	C117.628311,175.752396 119.013412,180.611542 120.617172,186.133667 
	C121.256798,188.198837 121.677765,189.601044 122.098724,191.003250 
	C123.347778,196.409271 124.596832,201.815292 125.466751,207.615891 
	C123.801399,208.871384 122.252647,209.506302 121.279617,210.636780 
	C118.661118,213.678986 116.288391,216.932724 113.818115,220.102478 
z"/>
<path fill="#1F79A5" opacity="1.000000" stroke="none" 
	d="
M116.234009,170.489502 
	C113.919266,173.765167 111.696007,176.727112 109.236671,179.478012 
	C107.540649,181.375107 105.517929,182.980118 103.332291,184.853790 
	C100.005325,171.951263 96.987297,158.910583 94.461639,145.433380 
	C100.078369,144.671890 105.202728,144.346954 110.327095,144.022034 
	C112.292999,152.709946 114.258904,161.397873 116.234009,170.489502 
z"/>
<path fill="#1AA3B5" opacity="1.000000" stroke="none" 
	d="
M122.930901,131.971176 
	C126.254463,124.690002 132.006348,119.918083 139.005692,116.448441 
	C143.298203,114.320610 147.607681,112.227013 152.375198,110.516678 
	C153.575897,116.303955 154.310944,121.692612 155.045990,127.081261 
	C155.045990,127.081261 155.014023,127.005371 154.736267,127.037010 
	C153.980148,127.408432 153.501785,127.748215 153.023407,128.087997 
	C150.873093,129.287094 148.773300,130.590225 146.562225,131.664230 
	C141.546127,134.100723 138.796890,138.139893 137.278046,143.798660 
	C129.941437,142.535889 127.589836,135.938248 122.930901,131.971176 
z"/>
<path fill="#F1F4EF" opacity="1.000000" stroke="none" 
	d="
M93.412735,29.001598 
	C97.974968,44.823029 102.180908,60.653999 106.598251,77.166992 
	C107.152481,79.563835 107.495300,81.278656 107.792412,83.399826 
	C107.616005,85.909081 107.485298,88.011978 106.917618,90.082237 
	C103.673721,89.692337 100.866806,89.335091 97.950256,89.028824 
	C97.840622,89.079796 97.598976,89.088730 97.719940,88.654587 
	C95.499329,77.146118 93.157761,66.071777 90.826859,54.611927 
	C89.121819,47.519707 87.406128,40.813000 85.690437,34.106285 
	C88.145767,32.407902 90.601097,30.709522 93.412735,29.001598 
z"/>
<path fill="#1B367D" opacity="1.000000" stroke="none" 
	d="
M81.914322,113.756027 
	C73.182861,118.224174 64.451401,122.692329 55.360847,126.629608 
	C56.454643,120.273567 52.394325,116.405373 49.980503,111.952736 
	C58.373360,107.246681 66.766212,102.540619 75.630707,98.031845 
	C77.745766,100.021873 80.197365,101.559120 80.861969,103.661308 
	C82.187492,107.854088 84.976738,108.400146 88.376282,108.514214 
	C87.490211,109.528809 86.756836,110.268188 85.707458,111.056145 
	C84.232407,111.988487 83.073364,112.872261 81.914322,113.756027 
z"/>
<path fill="#20407F" opacity="1.000000" stroke="none" 
	d="
M90.816200,54.997440 
	C93.157761,66.071777 95.499329,77.146118 97.347641,88.629166 
	C95.085480,88.372902 92.966949,88.121208 91.608040,86.971603 
	C85.648186,81.929695 85.688675,81.835289 81.312904,86.996635 
	C80.693840,78.938583 80.074768,70.880531 79.854057,62.494873 
	C84.228485,63.900074 86.259842,62.621357 87.165161,58.341869 
	C87.443031,57.028385 89.547935,56.101410 90.816200,54.997440 
z"/>
<path fill="#1C2B77" opacity="1.000000" stroke="none" 
	d="
M49.621861,111.997437 
	C52.394325,116.405373 56.454643,120.273567 55.001060,126.534279 
	C49.662865,129.983810 44.325359,132.997803 38.209869,136.029800 
	C34.982208,135.579742 32.532532,135.111679 30.082857,134.643600 
	C29.976433,134.175110 29.870010,133.706604 29.763586,133.238113 
	C30.992861,132.194183 32.222137,131.150269 33.451412,130.106354 
	C33.083454,129.889435 32.715496,129.672531 32.347538,129.455612 
	C33.264214,127.611687 34.262127,125.802635 35.073235,123.913383 
	C35.791180,122.241127 36.301239,120.479614 36.903076,118.757507 
	C41.023125,116.519051 45.143173,114.280594 49.621861,111.997437 
z"/>
<path fill="#1B92AC" opacity="1.000000" stroke="none" 
	d="
M107.354591,90.114883 
	C107.485298,88.011978 107.616005,85.909081 108.162010,83.435913 
	C110.581001,83.259590 113.019608,84.269386 114.499374,83.480522 
	C117.750809,81.747185 120.517349,79.104301 123.481842,76.832718 
	C123.645691,82.871696 123.809547,88.910690 123.768646,95.559746 
	C122.691544,96.762222 121.819214,97.354630 120.604736,98.006332 
	C116.162262,101.033325 112.061943,104.001038 107.661194,107.101624 
	C105.669052,108.202988 103.977333,109.171471 102.336563,109.786621 
	C104.043198,102.993820 105.698898,96.554352 107.354591,90.114883 
z"/>
<path fill="#1D9AAF" opacity="1.000000" stroke="none" 
	d="
M122.592773,132.167175 
	C127.589836,135.938248 129.941437,142.535889 137.137543,144.115417 
	C137.618332,147.819077 137.691666,151.482193 137.377777,155.622040 
	C133.035065,159.396469 129.079590,162.694138 125.124107,165.991821 
	C123.598564,158.961975 122.073021,151.932129 120.513840,144.453705 
	C121.071686,140.124481 121.663162,136.243820 122.592773,132.167175 
z"/>
<path fill="#1A3D82" opacity="1.000000" stroke="none" 
	d="
M81.183266,87.349167 
	C85.688675,81.835289 85.648186,81.929695 91.608040,86.971603 
	C92.966949,88.121208 95.085480,88.372902 97.226685,89.063301 
	C97.598976,89.088730 97.840622,89.079796 97.815002,89.394669 
	C95.138573,95.665077 92.487770,101.620613 89.605209,107.659592 
	C89.126816,107.967690 88.845329,108.133011 88.528984,108.238991 
	C84.976738,108.400146 82.187492,107.854088 80.861969,103.661308 
	C80.197365,101.559120 77.745766,100.021873 75.957993,97.889305 
	C77.560295,94.266884 79.306961,90.984291 81.183266,87.349167 
z"/>
<path fill="#F4F5F4" opacity="1.000000" stroke="none" 
	d="
M89.836975,107.576157 
	C92.487770,101.620613 95.138573,95.665077 97.924629,89.343689 
	C100.866806,89.335091 103.673721,89.692337 106.917618,90.082237 
	C105.698898,96.554352 104.043198,102.993820 102.107880,110.029434 
	C99.567039,112.456772 97.305832,114.287979 95.044617,116.119179 
	C93.602699,113.364120 92.002815,113.890862 89.866714,115.526306 
	C87.116707,117.631737 84.183937,118.497963 81.977821,114.146065 
	C83.073364,112.872261 84.232407,111.988487 86.113449,111.059456 
	C87.835968,109.868179 88.836472,108.722168 89.836975,107.576157 
z"/>
<path fill="#1A3F86" opacity="1.000000" stroke="none" 
	d="
M92.284592,137.129105 
	C86.104820,139.737839 79.925049,142.346588 73.320404,144.573608 
	C71.213936,140.103790 69.532349,136.015701 67.850754,131.927597 
	C75.282692,127.898605 82.714638,123.869606 90.636139,120.087753 
	C93.596909,125.305222 87.169586,124.953133 86.719452,127.114578 
	C87.397911,129.008698 88.439293,130.413864 88.087891,131.181244 
	C85.969757,135.806778 89.034988,136.470398 92.284592,137.129105 
z"/>
<path fill="#213B7D" opacity="1.000000" stroke="none" 
	d="
M90.826859,54.611927 
	C89.547935,56.101410 87.443031,57.028385 87.165161,58.341869 
	C86.259842,62.621357 84.228485,63.900074 79.917938,62.091331 
	C78.080208,49.520241 78.377037,37.159409 83.044281,24.876390 
	C83.743103,27.782986 84.441925,30.689579 85.415588,33.851231 
	C87.406128,40.813000 89.121819,47.519707 90.826859,54.611927 
z"/>
<path fill="#1A6E9B" opacity="1.000000" stroke="none" 
	d="
M110.430847,143.771484 
	C105.202728,144.346954 100.078369,144.671890 94.549576,144.996445 
	C94.037468,142.401138 93.929802,139.806229 93.415756,136.829285 
	C93.009384,136.447250 93.011200,136.044937 93.310898,136.006256 
	C94.119598,135.675964 94.628609,135.384338 95.484062,135.041824 
	C99.547485,132.314911 103.264465,129.638885 107.274002,126.837456 
	C108.714058,125.478439 109.861557,124.244827 111.282364,122.880760 
	C112.374023,122.166252 113.192375,121.582191 114.368904,120.998978 
	C115.443428,120.995956 116.159775,120.992088 116.876122,120.988213 
	C115.539352,123.940819 114.202576,126.893433 112.657532,130.375946 
	C112.392273,131.256134 112.335281,131.606400 112.278290,131.956665 
	C111.858017,133.712616 111.437744,135.468567 110.946770,137.997421 
	C110.893272,139.838165 110.910477,140.905991 110.927681,141.973831 
	C110.796661,142.489532 110.665634,143.005234 110.430847,143.771484 
z"/>
<path fill="#134182" opacity="1.000000" stroke="none" 
	d="
M93.011200,136.044937 
	C93.011200,136.044937 93.009384,136.447250 93.021439,136.647797 
	C93.033493,136.848358 92.704620,137.110352 92.494606,137.119720 
	C89.034988,136.470398 85.969757,135.806778 88.087891,131.181244 
	C88.439293,130.413864 87.397911,129.008698 86.719452,127.114578 
	C87.169586,124.953133 93.596909,125.305222 90.980316,119.991821 
	C91.967964,118.786789 93.100990,117.924828 94.845978,117.140434 
	C98.540489,120.398140 99.756508,117.598076 101.349304,114.065636 
	C103.534500,119.069595 105.257973,123.016220 106.981445,126.962845 
	C103.264465,129.638885 99.547485,132.314911 95.167160,135.032990 
	C94.006279,135.398346 93.508736,135.721634 93.011200,136.044937 
z"/>
<path fill="#166592" opacity="1.000000" stroke="none" 
	d="
M117.066750,120.704788 
	C116.159775,120.992088 115.443428,120.995956 114.405518,120.638412 
	C116.337166,115.961342 119.066025,111.813324 120.667831,107.268120 
	C121.652092,104.475182 120.912453,101.074715 120.946884,97.947044 
	C121.819214,97.354630 122.691544,96.762222 123.844780,96.013618 
	C125.836472,94.921356 127.547264,93.985291 129.972534,93.104568 
	C132.118149,98.013710 133.549301,102.867508 134.980453,107.721313 
	C129.072769,111.954666 123.165070,116.188019 117.066750,120.704788 
z"/>
<path fill="#23A5B6" opacity="1.000000" stroke="none" 
	d="
M125.110458,166.379150 
	C129.079590,162.694138 133.035065,159.396469 137.320526,156.038513 
	C138.102081,163.400085 138.553650,170.821915 138.529938,178.622345 
	C135.065842,179.665649 132.077072,180.330353 129.088287,180.995041 
	C127.757790,176.252182 126.427299,171.509323 125.110458,166.379150 
z"/>
<path fill="#1E3380" opacity="1.000000" stroke="none" 
	d="
M67.497124,131.965393 
	C69.532349,136.015701 71.213936,140.103790 72.940460,144.568542 
	C67.916069,146.580826 62.846760,148.216446 57.387299,149.492126 
	C55.336182,146.100433 53.675217,143.068649 52.014252,140.036880 
	C57.057327,137.358978 62.100410,134.681091 67.497124,131.965393 
z"/>
<path fill="#212476" opacity="1.000000" stroke="none" 
	d="
M26.998104,141.844742 
	C26.217396,142.447769 25.479630,143.118896 24.648983,143.642761 
	C19.418367,146.941452 14.964385,146.766937 12.048284,143.189728 
	C8.740921,139.132553 9.493653,134.719879 14.928507,130.273071 
	C17.019464,130.959152 18.432835,131.803253 19.910109,131.935944 
	C24.067696,132.309418 28.142670,132.401337 26.215847,138.584015 
	C25.930183,139.500641 26.710800,140.749557 26.998104,141.844742 
z"/>
<path fill="#2093B0" opacity="1.000000" stroke="none" 
	d="
M123.453056,76.415863 
	C120.517349,79.104301 117.750809,81.747185 114.499374,83.480522 
	C113.019608,84.269386 110.581001,83.259590 108.207718,83.029572 
	C107.495300,81.278656 107.152481,79.563835 106.818359,77.468185 
	C109.154579,74.197487 111.477661,71.304047 113.811058,68.418945 
	C115.535492,66.286781 117.273338,64.165474 119.384735,61.926491 
	C120.984268,66.542099 122.204269,71.270554 123.453056,76.415863 
z"/>
<path fill="#22297D" opacity="1.000000" stroke="none" 
	d="
M27.356007,141.875488 
	C26.710800,140.749557 25.930183,139.500641 26.215847,138.584015 
	C28.142670,132.401337 24.067696,132.309418 19.910109,131.935944 
	C18.432835,131.803253 17.019464,130.959152 15.272627,130.211121 
	C22.042234,126.284149 29.116140,122.585861 36.546562,118.822540 
	C36.301239,120.479614 35.791180,122.241127 35.073235,123.913383 
	C34.262127,125.802635 33.264214,127.611687 32.347538,129.455612 
	C32.715496,129.672531 33.083454,129.889435 33.451412,130.106354 
	C32.222137,131.150269 30.992861,132.194183 29.763586,133.238113 
	C29.870010,133.706604 29.976433,134.175110 30.082857,134.643600 
	C32.532532,135.111679 34.982208,135.579742 37.865711,136.080536 
	C34.770996,138.044250 31.242453,139.975250 27.356007,141.875488 
z"/>
<path fill="#263182" opacity="1.000000" stroke="none" 
	d="
M51.661926,140.068939 
	C53.675217,143.068649 55.336182,146.100433 56.999016,149.514816 
	C47.841206,152.408371 38.582920,153.915039 27.590864,152.762695 
	C36.281578,148.123352 43.795589,144.112167 51.661926,140.068939 
z"/>
<path fill="#0EDDCE" opacity="1.000000" stroke="none" 
	d="
M189.990570,90.973045 
	C190.628830,90.516136 191.267090,90.059227 192.083923,89.360458 
	C193.325867,88.678490 194.409988,88.282234 195.449249,87.791092 
	C202.013977,84.688744 204.910995,86.162132 207.693222,94.563354 
	C206.561722,93.917679 205.807098,92.946899 204.211853,90.894714 
	C202.195862,96.397186 200.612701,100.718300 199.029541,105.039413 
	C197.904175,105.680092 196.778824,106.320786 195.325272,106.528534 
	C194.334625,103.748512 193.758881,101.372490 192.987213,99.061897 
	C192.076843,96.336052 190.996964,93.666824 189.990570,90.973045 
z"/>
<path fill="#14CAC5" opacity="1.000000" stroke="none" 
	d="
M172.561752,99.799820 
	C174.963364,98.507133 177.364990,97.214455 180.553528,95.926743 
	C182.527481,96.534317 184.629822,96.993591 184.750351,97.763214 
	C185.441895,102.179321 185.663254,106.669060 186.044144,111.133820 
	C181.585464,113.605438 177.126801,116.077065 172.335358,118.243927 
	C174.491104,111.395775 176.979630,104.852394 179.408844,98.464966 
	C177.766754,98.785095 175.164261,99.292458 172.561752,99.799820 
z"/>
<path fill="#2AA3B4" opacity="1.000000" stroke="none" 
	d="
M129.070541,181.389893 
	C132.077072,180.330353 135.065842,179.665649 138.461731,178.999023 
	C138.916397,182.032486 138.963974,185.067886 138.748871,188.750397 
	C138.670868,190.270859 138.855545,191.144180 139.040222,192.017502 
	C138.283432,196.989166 137.526642,201.960815 136.769852,206.932480 
	C136.291290,206.890137 135.812714,206.847794 135.334137,206.805466 
	C133.240356,198.465225 131.146576,190.124985 129.070541,181.389893 
z"/>
<path fill="#15C1C3" opacity="1.000000" stroke="none" 
	d="
M172.229126,99.859695 
	C175.164261,99.292458 177.766754,98.785095 179.408844,98.464966 
	C176.979630,104.852394 174.491104,111.395775 172.001312,118.320839 
	C170.569794,119.450996 169.139526,120.199478 167.360168,120.570969 
	C167.250168,118.915825 167.482040,117.636284 167.729691,116.359810 
	C168.599564,111.876190 166.467087,106.440033 163.112717,104.603668 
	C166.040634,103.042305 168.968567,101.480942 172.229126,99.859695 
z"/>
<path fill="#124C8C" opacity="1.000000" stroke="none" 
	d="
M107.273994,126.837448 
	C105.257973,123.016220 103.534500,119.069595 101.349304,114.065636 
	C99.756508,117.598076 98.540489,120.398140 95.145836,117.067520 
	C94.833740,116.917046 94.951057,116.521248 94.997833,116.320213 
	C97.305832,114.287979 99.567039,112.456772 102.056938,110.382759 
	C103.977333,109.171471 105.669052,108.202988 107.976868,107.266342 
	C109.658913,109.578476 111.318909,111.779152 111.637970,114.159561 
	C112.022774,117.030426 111.269630,120.053833 111.009064,123.011208 
	C109.861557,124.244827 108.714058,125.478439 107.273994,126.837448 
z"/>
<path fill="#1A9FB0" opacity="1.000000" stroke="none" 
	d="
M169.152710,90.437408 
	C164.350922,92.958153 159.549133,95.478905 154.380997,97.643776 
	C155.342621,92.514229 156.670578,87.740547 157.998535,82.966873 
	C159.099274,82.627678 160.200012,82.288490 161.794952,82.185425 
	C162.863586,82.110207 163.438034,81.798874 164.012482,81.487534 
	C164.751678,81.318192 165.490875,81.148849 166.615540,81.413361 
	C167.718246,84.710617 168.435471,87.574013 169.152710,90.437408 
z"/>
<path fill="#0DD3C6" opacity="1.000000" stroke="none" 
	d="
M186.413284,111.094467 
	C185.663254,106.669060 185.441895,102.179321 184.750351,97.763214 
	C184.629822,96.993591 182.527481,96.534317 180.892212,95.901222 
	C183.383728,94.245247 186.323486,92.619759 189.626907,90.983658 
	C190.996964,93.666824 192.076843,96.336052 192.987213,99.061897 
	C193.758881,101.372490 194.334625,103.748512 194.998077,106.486664 
	C192.260193,108.270203 189.521301,109.662659 186.413284,111.094467 
z"/>
<path fill="#1C85A7" opacity="1.000000" stroke="none" 
	d="
M149.547607,100.302940 
	C147.277756,101.532249 145.007904,102.761566 142.376190,103.636215 
	C141.469467,101.443565 141.042679,99.559807 140.352081,97.778313 
	C139.315948,95.105469 138.094757,92.504364 136.952240,89.872757 
	C139.656113,88.780624 142.360001,87.688484 145.584198,86.912392 
	C146.730270,89.282898 147.420700,91.320419 147.964386,93.396370 
	C148.562515,95.680138 149.025665,97.999237 149.547607,100.302940 
z"/>
<path fill="#1C95AE" opacity="1.000000" stroke="none" 
	d="
M149.858444,100.250496 
	C149.025665,97.999237 148.562515,95.680138 147.964386,93.396370 
	C147.420700,91.320419 146.730270,89.282898 145.958298,86.824951 
	C149.609360,85.262566 153.406631,84.103661 157.601227,82.955811 
	C156.670578,87.740547 155.342621,92.514229 154.021835,97.691994 
	C152.742447,98.796745 151.455856,99.497398 149.858444,100.250496 
z"/>
<path fill="#1AB7C0" opacity="1.000000" stroke="none" 
	d="
M162.817749,104.675606 
	C166.467087,106.440033 168.599564,111.876190 167.729691,116.359810 
	C167.482040,117.636284 167.250168,118.915825 167.016312,120.611267 
	C165.243271,122.012047 163.464981,122.995522 161.403976,123.610062 
	C161.400650,121.801903 162.277557,120.146355 161.849274,118.963341 
	C160.472351,115.160149 158.613541,111.531410 156.940582,107.835388 
	C158.801315,106.806107 160.662033,105.776825 162.817749,104.675606 
z"/>
<path fill="#1B7399" opacity="1.000000" stroke="none" 
	d="
M136.593109,89.907043 
	C138.094757,92.504364 139.315948,95.105469 140.352081,97.778313 
	C141.042679,99.559807 141.469467,101.443565 142.024460,103.679604 
	C139.899734,105.242043 137.764893,106.406441 135.305237,107.646072 
	C133.549301,102.867508 132.118149,98.013710 130.303970,93.064690 
	C132.025284,91.960091 134.129623,90.950706 136.593109,89.907043 
z"/>
<path fill="#1F8BB3" opacity="1.000000" stroke="none" 
	d="
M114.039368,220.413116 
	C116.288391,216.932724 118.661118,213.678986 121.279617,210.636780 
	C122.252647,209.506302 123.801399,208.871384 125.444214,208.000702 
	C126.260567,210.213898 127.046280,212.426880 127.114937,214.661865 
	C127.278084,219.972397 119.923271,224.664001 114.039368,220.413116 
z"/>
<path fill="#18ADB9" opacity="1.000000" stroke="none" 
	d="
M156.627548,107.883820 
	C158.613541,111.531410 160.472351,115.160149 161.849274,118.963341 
	C162.277557,120.146355 161.400650,121.801903 161.058838,123.566559 
	C159.241425,124.927238 157.486435,125.962479 155.388718,127.039490 
	C154.310944,121.692612 153.575897,116.303955 152.756088,110.451065 
	C153.885712,109.301971 155.100113,108.617111 156.627548,107.883820 
z"/>
<path fill="#1FC0C2" opacity="1.000000" stroke="none" 
	d="
M188.210251,80.996971 
	C183.962585,83.238350 179.913528,85.222710 175.467529,86.914223 
	C174.038132,84.482491 173.005692,82.343597 171.973251,80.204704 
	C177.451782,80.383118 182.930328,80.561539 188.210251,80.996971 
z"/>
<path fill="#14E0D6" opacity="1.000000" stroke="none" 
	d="
M199.381165,104.990082 
	C200.612701,100.718300 202.195862,96.397186 204.211853,90.894714 
	C205.807098,92.946899 206.561722,93.917679 207.651428,94.945679 
	C208.444473,100.980865 204.062744,102.939308 199.381165,104.990082 
z"/>
<path fill="#1DABB5" opacity="1.000000" stroke="none" 
	d="
M171.610107,80.162384 
	C173.005692,82.343597 174.038132,84.482491 175.111969,87.010681 
	C173.377716,88.350891 171.602066,89.301796 169.489563,90.345062 
	C168.435471,87.574013 167.718246,84.710617 166.996948,81.447876 
	C168.410904,80.739044 169.828934,80.429550 171.610107,80.162384 
z"/>
<path fill="#EFF3EE" opacity="1.000000" stroke="none" 
	d="
M111.307671,141.986969 
	C110.910477,140.905991 110.893272,139.838165 110.990944,138.383270 
	C112.778091,137.508820 114.450363,137.021423 116.972549,136.286301 
	C117.319244,138.609192 117.659302,140.887573 117.999374,143.582367 
	C117.806023,144.871964 117.612656,145.745132 117.396439,146.721481 
	C115.314484,144.999619 113.501068,143.499863 111.307671,141.986969 
z"/>
<path fill="#EFF3EE" opacity="1.000000" stroke="none" 
	d="
M122.463623,191.009888 
	C121.677765,189.601044 121.256798,188.198837 120.845352,186.426575 
	C125.755493,185.023987 126.533760,185.721146 126.574974,191.517166 
	C125.297760,191.346481 124.063133,191.181503 122.463623,191.009888 
z"/>
<path fill="#23A5B6" opacity="1.000000" stroke="none" 
	d="
M139.181976,191.784515 
	C138.855545,191.144180 138.670868,190.270859 138.727264,189.205200 
	C139.086792,189.859085 139.205261,190.705307 139.181976,191.784515 
z"/>
<path fill="#1DABB5" opacity="1.000000" stroke="none" 
	d="
M163.746399,81.449036 
	C163.438034,81.798874 162.863586,82.110207 162.144547,82.212311 
	C162.493408,81.805565 162.986877,81.608047 163.746399,81.449036 
z"/>
<path fill="#18ADB9" opacity="1.000000" stroke="none" 
	d="
M153.325348,128.067673 
	C153.501785,127.748215 153.980148,127.408432 154.769836,127.060860 
	C154.596527,127.384499 154.111908,127.715919 153.325348,128.067673 
z"/>
<path fill="#EFF3EE" opacity="1.000000" stroke="none" 
	d="
M112.461319,131.765228 
	C112.335281,131.606400 112.392273,131.256134 112.657074,130.726379 
	C112.791374,130.889191 112.717865,131.231476 112.461319,131.765228 
z"/>
<path fill="#EBEEEC" opacity="1.000000" stroke="none" 
	d="
M89.605209,107.659592 
	C88.836472,108.722168 87.835968,109.868179 86.429466,111.010880 
	C86.756836,110.268188 87.490211,109.528809 88.376282,108.514214 
	C88.845329,108.133011 89.126816,107.967690 89.605209,107.659592 
z"/>
<path fill="#115790" opacity="1.000000" stroke="none" 
	d="
M111.282364,122.880760 
	C111.269630,120.053833 112.022774,117.030426 111.637970,114.159561 
	C111.318909,111.779152 109.658913,109.578476 108.277306,107.133453 
	C112.061943,104.001038 116.162262,101.033325 120.604736,98.006332 
	C120.912453,101.074715 121.652092,104.475182 120.667831,107.268120 
	C119.066025,111.813324 116.337166,115.961342 114.047348,120.637558 
	C113.192375,121.582191 112.374023,122.166252 111.282364,122.880760 
z"/>
<path fill="#1A3F86" opacity="1.000000" stroke="none" 
	d="
M93.310898,136.006256 
	C93.508736,135.721634 94.006279,135.398346 94.820717,135.083878 
	C94.628609,135.384338 94.119598,135.675964 93.310898,136.006256 
z"/>
</svg>